PathFileType	4	(X/Y/Z)	D:\Share\Shared_Data\Ergonomics\Sit To Stand Pertubation\S0\Perturbed STS.trc
DataRate	CameraRate	NumFrames	NumMarkers	Units	OrigDataRate	OrigDataStartFrame	OrigNumFrames	
100	100	19	18	m	100	6206	181
Frame#	Time	R_Heel			R_ASIS			R_Pelvis			V_Sacral			L_Pelvis			L_ASIS			Clavical			R_Acromium			L_Acromium			Sternum			Torso			R_Thigh_Med			R_Thigh_Lat			R_Thigh			R_Shank_Med			R_Shank_Lat			R_Shank			R_Toe			
		X1	Y1	Z1	X2	Y2	Z2	X3	Y3	Z3	X4	Y4	Z4	X5	Y5	Z5	X6	Y6	Z6	X7	Y7	Z7	X8	Y8	Z8	X9	Y9	Z9	X10	Y10	Z10	X11	Y11	Z11	X12	Y12	Z12	X13	Y13	Z13	X14	Y14	Z14	X15	Y15	Z15	X16	Y16	Z16	X17	Y17	Z17	X18	Y18	Z18	

6206	18.4	0.15344679	0.041990028	0.1445246	0.10596928	0.82311835	0.12800711	-0.0075923777	0.88283862	0.17208293	-0.13556779	0.90443445	-0.057624844	0.0092276611	0.85030701	-0.23424944	0.11735195	0.79404614	-0.18006677	0.38042783	1.0732675	-0.028531771	0.35975204	1.1796448	0.099175194	0.36466629	1.1824921	-0.17539537	0.34645895	0.98487677	-0.050711365	0.36299536	1.0360433	-0.1450049	0.30035638	0.48526318	0.041512749	0.29754587	0.51187564	0.17465152	0.27213498	0.65924384	0.090113266	0.25309631	0.098324883	0.095952477	0.19611674	0.087710052	0.18660556	0.25254366	0.31298001	0.19533243	0.38302594	0.047248428	0.13617059
6207	18.41	0.15337108	0.041950371	0.14456989	0.10914252	0.82594543	0.12831429	-0.0041694489	0.88608575	0.17260846	-0.13228162	0.9078064	-0.056997524	0.012010206	0.85359839	-0.23390155	0.12007562	0.79730273	-0.17993134	0.38242282	1.0792799	-0.028737154	0.36106595	1.1853624	0.099389603	0.36572861	1.188301	-0.17579884	0.34883688	0.99068195	-0.050732014	0.36516864	1.041861	-0.1453284	0.30148108	0.48501566	0.041491638	0.29885193	0.51163156	0.17455104	0.2748642	0.65926581	0.090364899	0.25304759	0.098259964	0.095868935	0.19616136	0.087705986	0.18661124	0.25324953	0.3128981	0.19538528	0.383	0.047189938	0.13611728
6208	18.42	0.15328738	0.04189938	0.14460722	0.11221518	0.82874707	0.12868285	-0.00081477827	0.88929114	0.17316249	-0.12907114	0.91115594	-0.056337982	0.014711351	0.85689392	-0.23354361	0.12273209	0.80057953	-0.17980023	0.38425485	1.08538	-0.028934673	0.36224692	1.1912003	0.099575417	0.36666739	1.1941998	-0.17617871	0.35104828	0.99656781	-0.050731579	0.36713388	1.0477644	-0.14563681	0.30250558	0.48480368	0.041516102	0.3000354	0.51137613	0.17450148	0.27753268	0.65927716	0.090753662	0.25298616	0.09819957	0.095789032	0.19619524	0.087693367	0.18661618	0.25389838	0.3128132	0.19547182	0.38296182	0.047130432	0.13607384
6209	18.43	0.15319783	0.041839722	0.14463855	0.11520119	0.83153302	0.12910132	0.0024782274	0.89245752	0.17374361	-0.12592843	0.91448389	-0.055648594	0.017342339	0.8601933	-0.23317497	0.12532975	0.80387616	-0.17966333	0.38593311	1.0915656	-0.029122234	0.36329449	1.1971508	0.099728294	0.36748431	1.2001854	-0.17653452	0.35311191	1.0025319	-0.050714447	0.3688894	1.0537499	-0.14592924	0.30342297	0.48464905	0.041567135	0.30111322	0.51112329	0.17449171	0.28011844	0.65929169	0.09124614	0.25291318	0.098144783	0.09571183	0.1962211	0.087675323	0.18662141	0.25449815	0.31272638	0.19557985	0.38291113	0.047075008	0.13603444
6210	18.44	0.15310399	0.04177351	0.14466571	0.11811916	0.83431628	0.12955782	0.005711843	0.89559338	0.17434946	-0.12284727	0.9177912	-0.054932735	0.019911943	0.86349738	-0.23279564	0.12787218	0.80719	-0.17951268	0.38746902	1.097834	-0.029296616	0.36420633	1.2032043	0.099845192	0.36818143	1.2062521	-0.17686642	0.35505334	1.008571	-0.050682621	0.37045001	1.0598119	-0.14620515	0.30423505	0.48456223	0.041630898	0.30210397	0.51088364	0.17451036	0.2826058	0.65932336	0.091805809	0.25282892	0.098096886	0.095636185	0.19624086	0.087654396	0.18662756	0.25505423	0.3126377	0.19570027	0.38284744	0.04702927	0.1359931
6211	18.45	0.15300723	0.041702351	0.14468987	0.1209886	0.83710718	0.13004327	0.0088883591	0.8987074	0.17497676	-0.11982251	0.92107812	-0.054194542	0.022426552	0.86680725	-0.23240668	0.13035876	0.81051605	-0.17934306	0.38887497	1.1041815	-0.029454838	0.36498001	1.2093517	0.099925278	0.36876126	1.2123928	-0.17717574	0.35689651	1.0146813	-0.050636322	0.37184122	1.0659442	-0.14646466	0.30495483	0.4845405	0.041699509	0.30302435	0.51066452	0.17454723	0.28498932	0.65938129	0.092399132	0.25273361	0.098056679	0.095560417	0.19625598	0.087632385	0.18663446	0.25556987	0.31254749	0.19582675	0.38277048	0.046998558	0.13594412
6212	18.46	0.15290877	0.041627495	0.14471126	0.12382678	0.83991071	0.13055148	0.012012774	0.90180432	0.17562259	-0.1168495	0.9243457	-0.053438446	0.024890608	0.87012531	-0.23200977	0.13278543	0.81384772	-0.17915205	0.39016342	1.1106035	-0.029595066	0.36561533	1.2155818	0.099971306	0.36922632	1.2185991	-0.17746498	0.35865973	1.0208582	-0.050574993	0.37309229	1.0721411	-0.14670863	0.30560516	0.48456998	0.041770088	0.30388696	0.51047165	0.17459537	0.2872753	0.65946741	0.092999695	0.25262802	0.098024307	0.095482391	0.19626773	0.087610374	0.18664081	0.25604794	0.31245673	0.19595424	0.3826806	0.046987347	0.13588237
6213	18.47	0.15281001	0.041550068	0.14472951	0.12664745	0.84273041	0.13107629	0.015092417	0.90488544	0.17628529	-0.11392349	0.92759509	-0.052668167	0.027307167	0.8734552	-0.23160623	0.13514568	0.81717712	-0.1789397	0.39134607	1.1170953	-0.02971702	0.36611649	1.221885	0.099990555	0.36957812	1.2248629	-0.1777373	0.36035574	1.0270967	-0.050498455	0.37423166	1.0783966	-0.14693909	0.30621304	0.48462967	0.041842758	0.30469998	0.51030743	0.17465028	0.28947894	0.65957642	0.093589905	0.25251364	0.0979991	0.095400002	0.19627728	0.08758902	0.18664452	0.256492	0.31236676	0.19607802	0.38257883	0.046998726	0.13580345
6214	18.48	0.15271265	0.041471275	0.14474385	0.12946057	0.84557031	0.13161034	0.018135494	0.90795056	0.1769641	-0.11103936	0.93082758	-0.051885574	0.02967878	0.87680084	-0.23119699	0.13743221	0.82049652	-0.17870699	0.3924324	1.1236528	-0.029822128	0.36649219	1.2282528	0.09999453	0.36981668	1.2311765	-0.1779957	0.36199335	1.033392	-0.050407921	0.37528366	1.0847053	-0.14715898	0.30680322	0.48469781	0.041918438	0.30546844	0.51016818	0.17470677	0.29161893	0.65969788	0.094160797	0.25239279	0.097979637	0.095311646	0.19628587	0.087568878	0.1866432	0.25690701	0.31227853	0.19619371	0.38246725	0.047033432	0.13570355
6215	18.49	0.15261873	0.041392635	0.14475336	0.13227199	0.84843243	0.13214738	0.021150202	0.91099957	0.17765804	-0.10819176	0.93404504	-0.051090294	0.032008614	0.88016437	-0.23078287	0.1396387	0.8237998	-0.1784545	0.3934281	1.1302714	-0.029913242	0.36675455	1.2346777	0.099997292	0.36994067	1.237533	-0.17824236	0.36357776	1.0397399	-0.050305965	0.37626685	1.0910641	-0.14737175	0.30739291	0.48475711	0.041997318	0.30619537	0.51004367	0.17475751	0.29371103	0.65981934	0.094709984	0.25226814	0.09796402	0.095216751	0.19629478	0.08755056	0.18663499	0.25729849	0.31219321	0.19629762	0.38234985	0.047089138	0.1355799
6216	18.5	0.1525303	0.041316082	0.14475739	0.13508264	0.85131482	0.13268431	0.024144567	0.91403149	0.17836617	-0.10537535	0.93724915	-0.050280136	0.034301239	0.88354718	-0.23036423	0.1417623	0.82708411	-0.17818123	0.39433505	1.136947	-0.029993999	0.3669165	1.2411536	0.1000125	0.36994745	1.2439277	-0.17847852	0.36511044	1.0461372	-0.050195667	0.37719315	1.0974709	-0.1475807	0.30798801	0.48479822	0.04207832	0.30688303	0.5099216	0.17479562	0.29576523	0.65992963	0.095238121	0.25214243	0.0979505	0.095115837	0.19630513	0.087534531	0.18661894	0.25767139	0.31211182	0.19638724	0.38223181	0.04716069	0.13543222
6217	18.51	0.15244899	0.041243851	0.14475584	0.1378886	0.85421472	0.13321997	0.027126396	0.91704425	0.17908734	-0.10258541	0.94044122	-0.049452099	0.036562485	0.88695093	-0.22993996	0.14380669	0.83035199	-0.17788477	0.39515298	1.1436761	-0.030067862	0.36698837	1.2476736	0.10005026	0.36983411	1.2503567	-0.17870439	0.36658929	1.0525819	-0.050079479	0.3780672	1.1039255	-0.14778853	0.30858249	0.48482004	0.042159332	0.3075325	0.50979327	0.17481746	0.29778418	0.66002155	0.095745712	0.25201833	0.097937843	0.09501049	0.19631749	0.087521095	0.18659517	0.25802838	0.3120354	0.19646164	0.38211859	0.047241158	0.13526399
6218	18.52	0.1523759	0.04117791	0.1447495	0.14068198	0.8571322	0.13375298	0.030103085	0.92003455	0.17981989	-0.099817741	0.94362183	-0.048603512	0.038799049	0.89037958	-0.22950687	0.14578731	0.83361249	-0.17756323	0.39588077	1.1504542	-0.030137268	0.36697495	1.25423	0.10011481	0.36959787	1.2568168	-0.17891879	0.36800958	1.0590713	-0.049958786	0.37888763	1.1104275	-0.14799701	0.3091619	0.48482846	0.042237679	0.30814334	0.50965649	0.17482297	0.29976474	0.66009241	0.096231934	0.25189841	0.09792527	0.09490313	0.19633203	0.087510132	0.18656516	0.25836859	0.31196466	0.19652184	0.38201483	0.047322899	0.13508226
6219	18.53	0.1523116	0.041119354	0.14474039	0.14345511	0.86007129	0.13427899	0.033081284	0.92299854	0.18056139	-0.097067856	0.94678925	-0.047732716	0.041018234	0.89383759	-0.22906165	0.14773849	0.83688348	-0.17721764	0.39651764	1.1572756	-0.030203196	0.36687546	1.2608145	0.10020448	0.36923633	1.2633054	-0.17911859	0.36936548	1.0656023	-0.049834007	0.37964996	1.1169756	-0.14820613	0.30970856	0.48483383	0.042310455	0.30871402	0.50951605	0.17481519	0.30170044	0.66014435	0.096695107	0.2517851	0.097912369	0.094796944	0.1963485	0.087501076	0.18653151	0.25868768	0.31189966	0.19657033	0.3819241	0.047398636	0.1348958
6220	18.54	0.15225604	0.041068371	0.14473177	0.14620808	0.86303693	0.13479037	0.036066292	0.92593225	0.18130867	-0.094330696	0.9499397	-0.046838917	0.043227345	0.8973277	-0.2286032	0.14971486	0.84019104	-0.17685265	0.39706372	1.164134	-0.030265169	0.36668643	1.267417	0.10031453	0.36874698	1.2698201	-0.17929877	0.37065125	1.0721709	-0.049704758	0.38034677	1.1235673	-0.14841359	0.31020499	0.48484711	0.04237495	0.3092413	0.50938104	0.17479866	0.3035849	0.66018158	0.09713369	0.25168019	0.097899239	0.094695236	0.1963663	0.087493156	0.1864975	0.25897952	0.31184021	0.19661047	0.38184799	0.047462685	0.13471312
6221	18.55	0.15220836	0.041024254	0.14472723	0.14895267	0.8660332	0.1352785	0.039061218	0.92883337	0.18205788	-0.091601448	0.95306738	-0.045921944	0.045432728	0.90084979	-0.22813297	0.15177477	0.84356268	-0.17647504	0.39751984	1.1710215	-0.030321424	0.36640527	1.2740271	0.10044084	0.36812802	1.2763577	-0.17945403	0.37186176	1.078771	-0.049569965	0.38096628	1.1301986	-0.14861484	0.31063547	0.48487717	0.042429104	0.30971982	0.50926059	0.17477718	0.30541357	0.66020892	0.097547142	0.25158403	0.097886436	0.0946008	0.19638478	0.087485413	0.18646622	0.25923853	0.31178604	0.19664577	0.38178619	0.047511658	0.13454031
6222	18.56	0.1521667	0.040985519	0.14472983	0.15170692	0.8690639	0.13573714	0.042066292	0.93170245	0.18280443	-0.088876869	0.95616663	-0.04498262	0.047639019	0.90440106	-0.2276528	0.15394724	0.84701117	-0.17609222	0.39788672	1.1779294	-0.030369242	0.36603198	1.2806348	0.10058186	0.36738043	1.2829135	-0.17958009	0.37299423	1.085396	-0.049427994	0.38149463	1.136864	-0.148804	0.31098792	0.48492871	0.042471771	0.31014291	0.50916058	0.1747525	0.30718427	0.6602298	0.097936066	0.25149545	0.097874863	0.094515465	0.19640305	0.087476883	0.18644034	0.25946103	0.31173743	0.19667914	0.38173682	0.047544582	0.13438034
6223	18.57	0.15212895	0.040950481	0.14474144	0.1544863	0.87212976	0.13616446	0.045078564	0.9345437	0.1835432	-0.086155472	0.9592326	-0.044023338	0.049849789	0.9079762	-0.22716365	0.15621053	0.85052625	-0.17571289	0.39816553	1.1848495	-0.030405668	0.36556818	1.2872296	0.10073825	0.36650879	1.2894819	-0.17967412	0.37404892	1.0920385	-0.049276821	0.38192178	1.1435563	-0.1489749	0.31125452	0.4850022	0.042502743	0.31050424	0.50908322	0.17472461	0.3088963	0.66024561	0.098301712	0.25141231	0.097865494	0.094439926	0.1964202	0.087466766	0.18642168	0.25964572	0.31169452	0.19671278	0.38169672	0.047562412	0.13423317
6224	18.58	0.15209309	0.04091766	0.14476266	0.15729942	0.87522632	0.1365641	0.048092804	0.93736395	0.18426921	-0.083436668	0.96226123	-0.043048519	0.052068962	0.91156799	-0.22666557	0.15851053	0.85408203	-0.17534645	0.39835733	1.1917731	-0.030428238	0.36501706	1.2938035	0.10091201	0.3655209	1.2960555	-0.17973439	0.37502814	1.0986901	-0.049114067	0.38224469	1.1502654	-0.1491223	0.31143198	0.48509491	0.042522812	0.31080002	0.50902753	0.17469287	0.31055045	0.66025616	0.098645096	0.25133202	0.097858932	0.09437381	0.19643539	0.087454536	0.18641101	0.25979303	0.31165778	0.19674776	0.38166275	0.047567287	0.13409723
